<?xml version="1.0" encoding="utf-8"?>
<!-- Generator: Adobe Illustrator 17.1.0, SVG Export Plug-In . SVG Version: 6.00 Build 0)  -->
<!DOCTYPE svg PUBLIC "-//W3C//DTD SVG 1.1//EN" "http://www.w3.org/Graphics/SVG/1.1/DTD/svg11.dtd">
<svg version="1.1" xmlns="http://www.w3.org/2000/svg" xmlns:xlink="http://www.w3.org/1999/xlink" x="0px" y="0px"
	 viewBox="0 0 792 612" enable-background="new 0 0 792 612" xml:space="preserve">
<g id="Layer_4" display="none">
	<rect display="inline" width="792" height="612"/>
</g>
<g id="Layer_3" display="none">
	<g display="inline">
		
			<rect x="105.632" y="159.694" transform="matrix(0.7071 -0.7071 0.7071 0.7071 -158.1853 305.4392)" fill="#DF5B49" width="367.945" height="367.945"/>
		
			<rect x="140.24" y="125.949" transform="matrix(0.7071 -0.7071 0.7071 0.7071 -111.487 289.3648)" fill="#E27A3D" width="306.621" height="306.621"/>
		
			<rect x="167.746" y="96.626" transform="matrix(0.7071 -0.7071 0.7071 0.7071 -69.996 269.5637)" fill="#EFCA4D" width="245.297" height="245.297"/>
		
			<rect x="199.197" y="65.092" transform="matrix(0.7071 -0.7071 0.7071 0.7071 -25.7858 251.905)" fill="#43B29D" width="183.973" height="183.973"/>
		
			<rect x="230.648" y="33.559" transform="matrix(0.7071 -0.7071 0.7071 0.7071 18.4245 234.2462)" fill="#354E5D" width="122.648" height="122.648"/>
		<g>
			<path fill="#FFFFFF" d="M721.335,113.501c0,12.828-5.007,24.021-15.021,33.578c-10.014,9.553-22.875,14.334-38.586,14.334
				c-15.708,0-28.865-4.909-39.468-14.727c-10.603-9.818-15.905-20.98-15.905-33.479c0-12.503,5.169-22.877,15.514-31.124h-13.943
				V52.628h145.7v29.455h-51.839C716.818,90.198,721.335,100.669,721.335,113.501z M666.649,81.69
				c-8.576,0-15.58,2.386-21.011,7.167c-5.433,4.777-8.15,10.569-8.15,17.378c0,6.805,2.717,12.764,8.15,17.868
				c5.431,5.106,12.4,7.658,20.912,7.658c8.509,0,15.642-2.488,21.403-7.461c5.761-4.976,8.64-10.932,8.64-17.87
				c0-6.939-2.847-12.797-8.541-17.574C682.357,84.077,675.222,81.69,666.649,81.69z"/>
			<path fill="#FFFFFF" d="M662.625,251.541h56.945v29.649H613.926v-29.649h13.943c-10.344-7.333-15.514-16.79-15.514-28.375
				s3.633-21.305,10.898-29.159c7.266-7.854,18.031-11.781,32.301-11.781h64.016v29.649h-57.536
				c-16.233,0-24.348,5.957-24.348,17.87c0,5.891,2.125,10.997,6.381,15.317C648.32,249.381,654.504,251.541,662.625,251.541z"/>
			<path fill="#FFFFFF" d="M733.019,311.53c3.337-3.338,7.428-5.008,12.273-5.008c4.842,0,8.935,1.67,12.273,5.008
				c3.337,3.337,5.007,7.428,5.007,12.273c0,4.841-1.67,8.934-5.007,12.273c-3.337,3.337-7.431,5.007-12.273,5.007
				c-4.845,0-8.935-1.67-12.273-5.007c-3.337-3.339-5.007-7.432-5.007-12.273C728.012,318.958,729.682,314.867,733.019,311.53z
				 M613.926,338.53v-29.455h105.643v29.455H613.926z"/>
			<path fill="#FFFFFF" d="M751.183,396.061H651.039c-4.062,0-7.236,1.047-9.524,3.143c-2.293,2.092-3.436,4.58-3.436,7.461
				c0,5.498,2.485,10.143,7.46,13.941l-20.617,10.997c-8.379-9.165-12.568-18.82-12.568-28.964c0-10.146,3.34-18.722,10.014-25.724
				c6.677-7.005,15.775-10.505,27.294-10.505h101.521V396.061z"/>
			<path fill="#FFFFFF" d="M612.355,489.823c0-12.503,5.303-23.661,15.905-33.479c10.603-9.818,23.76-14.727,39.468-14.727
				c15.711,0,28.572,4.777,38.586,14.334c10.014,9.555,15.021,20.747,15.021,33.578c0,12.828-4.517,23.3-13.548,31.418h51.839V550.4
				h-145.7v-29.454h13.943C617.524,512.699,612.355,502.323,612.355,489.823z M666.551,471.267c-8.512,0-15.482,2.551-20.912,7.657
				c-5.433,5.106-8.15,11.061-8.15,17.87c0,6.805,2.717,12.598,8.15,17.378c5.431,4.777,12.435,7.167,21.011,7.167
				c8.573,0,15.708-2.39,21.402-7.167c5.694-4.781,8.541-10.637,8.541-17.575c0-6.939-2.879-12.895-8.64-17.868
				C682.192,473.752,675.06,471.267,666.551,471.267z"/>
		</g>
		<g>
			
				<rect x="276.51" y="129.852" transform="matrix(0.7071 -0.7071 0.7071 0.7071 -17.5626 249.8063)" fill="#FFFFFF" width="32.502" height="32.502"/>
			
				<rect x="276.51" y="77.849" transform="matrix(0.7071 -0.7071 0.7071 0.7071 19.2094 234.5748)" fill="#FFFFFF" width="32.502" height="32.502"/>
			
				<rect x="276.51" y="25.845" transform="matrix(0.7071 -0.7071 0.7071 0.7071 55.9814 219.3434)" fill="#FFFFFF" width="32.502" height="32.502"/>
		</g>
	</g>
</g>
<g id="Layer_2" display="none">
	<rect x="55.199" y="54.092" display="inline" fill="#DF5B49" width="503.817" height="503.817"/>
	<rect x="63.596" y="63.245" display="inline" fill="#E27A3D" width="419.847" height="419.847"/>
	<rect x="73.672" y="72.565" display="inline" fill="#EFCA4D" width="335.878" height="335.878"/>
	<rect x="85.428" y="80.962" display="inline" fill="#43B29D" width="251.908" height="251.908"/>
	<rect x="94.806" y="89.944" display="inline" fill="#354E5D" width="167.939" height="167.939"/>
	<g display="inline">
		<path fill="#FFFFFF" d="M695.064,115.704c0,12.984-5.068,24.312-15.204,33.986c-10.136,9.669-23.153,14.508-39.055,14.508
			c-15.899,0-29.216-4.968-39.947-14.906c-10.731-9.938-16.099-21.235-16.099-33.886c0-12.655,5.232-23.154,15.702-31.502H586.35
			V54.092H733.82v29.813h-52.469C690.492,92.118,695.064,102.716,695.064,115.704z M639.714,83.507
			c-8.68,0-15.77,2.415-21.266,7.254c-5.499,4.835-8.249,10.698-8.249,17.589c0,6.887,2.75,12.919,8.249,18.085
			c5.496,5.168,12.551,7.751,21.166,7.751c8.613,0,15.832-2.518,21.662-7.552c5.831-5.037,8.745-11.064,8.745-18.087
			c0-7.024-2.882-12.953-8.645-17.787C655.613,85.922,648.391,83.507,639.714,83.507z"/>
		<path fill="#FFFFFF" d="M635.641,255.42h57.636v30.01H586.35v-30.01h14.112c-10.47-7.423-15.702-16.993-15.702-28.72
			s3.677-21.564,11.031-29.514c7.354-7.95,18.25-11.924,32.693-11.924h64.793v30.01h-58.235c-16.43,0-24.644,6.029-24.644,18.087
			c0,5.963,2.151,11.13,6.459,15.503C621.162,253.234,627.422,255.42,635.641,255.42z"/>
		<path fill="#FFFFFF" d="M706.89,316.138c3.378-3.379,7.518-5.069,12.422-5.069c4.901,0,9.044,1.69,12.422,5.069
			c3.378,3.378,5.068,7.518,5.068,12.422c0,4.899-1.69,9.043-5.068,12.422c-3.378,3.378-7.521,5.068-12.422,5.068
			c-4.903,0-9.044-1.69-12.422-5.068c-3.378-3.379-5.068-7.522-5.068-12.422C701.822,323.656,703.512,319.515,706.89,316.138z
			 M586.35,343.465v-29.813h106.926v29.813H586.35z"/>
		<path fill="#FFFFFF" d="M725.274,401.696h-101.36c-4.111,0-7.324,1.059-9.64,3.181c-2.321,2.117-3.477,4.635-3.477,7.552
			c0,5.565,2.515,10.266,7.551,14.11l-20.867,11.13c-8.481-9.276-12.721-19.049-12.721-29.315c0-10.269,3.38-18.949,10.136-26.036
			c6.758-7.09,15.966-10.633,27.625-10.633h102.754V401.696z"/>
		<path fill="#FFFFFF" d="M584.76,496.595c0-12.655,5.367-23.948,16.099-33.886c10.731-9.938,24.048-14.906,39.947-14.906
			c15.902,0,28.919,4.835,39.055,14.508c10.136,9.671,15.204,20.999,15.204,33.986c0,12.984-4.572,23.583-13.713,31.799h52.469
			v29.811H586.35v-29.811h14.112C589.992,519.75,584.76,509.247,584.76,496.595z M639.614,477.815c-8.615,0-15.67,2.582-21.166,7.75
			c-5.499,5.168-8.249,11.195-8.249,18.087c0,6.887,2.75,12.751,8.249,17.589c5.496,4.835,12.586,7.254,21.266,7.254
			c8.677,0,15.899-2.419,21.662-7.254c5.763-4.839,8.645-10.766,8.645-17.789c0-7.024-2.914-13.051-8.745-18.085
			C655.446,480.33,648.227,477.815,639.614,477.815z"/>
	</g>
	<rect x="114.07" y="179.131" display="inline" fill="#FFFFFF" width="61.324" height="61.324"/>
	<rect x="180.72" y="108.964" display="inline" fill="#FFFFFF" width="61.324" height="61.324"/>
</g>
<g id="Layer_1">
	<g>
		<g>
			<rect x="159.48" y="183.352" fill="#DF5B49" width="367.945" height="367.945"/>
			<rect x="130.044" y="148.336" fill="#E27A3D" width="306.621" height="306.621"/>
			<rect x="98.155" y="122.027" fill="#EFCA4D" width="245.297" height="245.297"/>
			<rect x="67.493" y="91.365" fill="#43B29D" width="183.973" height="183.973"/>
			<rect x="36.831" y="60.703" fill="#354E5D" width="122.648" height="122.648"/>
			<g>
				<path fill="#FFFFFF" d="M713.932,117.987c0,12.828-5.007,24.021-15.021,33.578c-10.014,9.553-22.875,14.334-38.586,14.334
					c-15.708,0-28.865-4.909-39.468-14.727c-10.603-9.818-15.905-20.98-15.905-33.479c0-12.503,5.169-22.877,15.514-31.124h-13.943
					V57.114h145.7v29.455h-51.839C709.415,94.684,713.932,105.155,713.932,117.987z M659.246,86.176
					c-8.576,0-15.58,2.386-21.011,7.167c-5.433,4.777-8.15,10.569-8.15,17.378c0,6.805,2.717,12.764,8.15,17.868
					c5.431,5.106,12.4,7.658,20.912,7.658c8.509,0,15.642-2.488,21.402-7.461c5.761-4.976,8.64-10.932,8.64-17.87
					c0-6.939-2.847-12.797-8.541-17.574C674.955,88.563,667.82,86.176,659.246,86.176z"/>
				<path fill="#FFFFFF" d="M655.222,256.027h56.945v29.649H606.523v-29.649h13.943c-10.344-7.333-15.514-16.79-15.514-28.375
					c0-11.585,3.633-21.305,10.898-29.159c7.266-7.854,18.031-11.781,32.301-11.781h64.016v29.649h-57.536
					c-16.233,0-24.348,5.957-24.348,17.87c0,5.891,2.125,10.997,6.381,15.317C640.917,253.867,647.102,256.027,655.222,256.027z"/>
				<path fill="#FFFFFF" d="M725.617,316.016c3.337-3.339,7.428-5.008,12.273-5.008c4.842,0,8.935,1.67,12.273,5.008
					c3.337,3.337,5.007,7.428,5.007,12.273c0,4.841-1.67,8.934-5.007,12.273c-3.337,3.337-7.431,5.007-12.273,5.007
					c-4.845,0-8.935-1.67-12.273-5.007c-3.337-3.338-5.007-7.432-5.007-12.273C720.609,323.444,722.279,319.353,725.617,316.016z
					 M606.523,343.016v-29.455h105.643v29.455H606.523z"/>
				<path fill="#FFFFFF" d="M743.78,400.547H643.637c-4.062,0-7.236,1.047-9.524,3.143c-2.293,2.092-3.436,4.58-3.436,7.461
					c0,5.498,2.485,10.143,7.46,13.941L617.52,436.09c-8.379-9.164-12.568-18.82-12.568-28.964c0-10.146,3.34-18.722,10.014-25.724
					c6.677-7.005,15.775-10.505,27.294-10.505H743.78V400.547z"/>
				<path fill="#FFFFFF" d="M604.952,494.309c0-12.503,5.303-23.661,15.905-33.479c10.603-9.818,23.76-14.727,39.468-14.727
					c15.711,0,28.572,4.777,38.586,14.334c10.014,9.555,15.021,20.747,15.021,33.578c0,12.828-4.517,23.3-13.548,31.418h51.839
					v29.454h-145.7v-29.454h13.943C610.121,517.185,604.952,506.809,604.952,494.309z M659.148,475.753
					c-8.512,0-15.482,2.551-20.912,7.657c-5.433,5.106-8.15,11.061-8.15,17.87c0,6.805,2.717,12.598,8.15,17.378
					c5.431,4.777,12.435,7.167,21.011,7.167c8.573,0,15.708-2.39,21.403-7.167c5.694-4.781,8.541-10.637,8.541-17.575
					c0-6.939-2.879-12.895-8.64-17.868C674.79,478.238,667.657,475.753,659.148,475.753z"/>
			</g>
		</g>
		<rect x="67.853" y="91.34" fill="#FFFFFF" width="61.324" height="61.324"/>
	</g>
</g>
</svg>
